<svg xmlns="http://www.w3.org/2000/svg" xmlns:xlink="http://www.w3.org/1999/xlink" version="1.1" x="0px" y="0px" viewBox="0 0 296 41" enable-background="new 0 0 296 41" xml:space="preserve">
<style>
	.style0{
		clip-path:	url(#SVGID_2_);
		fill:	#414042;
	}
	.style1{
		clip-path:	url(#SVGID_2_);
		fill:	#99B83C;
	}
</style><g>
	<g>
		<defs>
			<rect y="1" width="296" height="40"/>
		</defs>
		<clipPath>
			<use xlink:href="#SVGID_1_" overflow="visible"/>
		</clipPath>
		<path d="M16.4 4C14.1 2 11.7 1.1 8.7 1.1C4.1 1.1 0 4 0 8.9c0 5.1 4.5 7.8 9.2 7.8 c2.5 0 5.1-0.7 7.1-2.3l-0.8-1.8c-2 1.4-3.8 2.1-6.3 2.1c-3.6 0-7.3-1.8-7.3-5.8C1.9 5.1 5.2 3 8.7 3c2.6 0 4.6 0.9 6.6 2.5 L16.4 4L16.4 4z M38.6 16.2L30.5 1.6h-1.7l-8.3 14.6h2l2.1-3.6h10.1l2 3.6H38.6L38.6 16.2z M33.5 10.6h-7.9l4-7L33.5 10.6 L33.5 10.6z M59.2 16.2l-4.3-6c2.2-0.4 4-1.8 4-4.2c0-3.2-2.8-4.3-5.6-4.3h-9.1v14.6h1.9v-5.9h6.5l4.1 5.9H59.2L59.2 16.2z M57 5.9C57 8 55 8.4 53.3 8.4h-7.2V3.5h7.2C55 3.5 57 3.9 57 5.9L57 5.9z M83.1 9c0-5-4.5-7.9-9.1-7.9c-4.5 0-8.8 2.9-8.8 7.7 c0 5 4.2 7.9 8.9 7.9C78.7 16.7 83.1 14 83.1 9L83.1 9z M81.2 9c0 3.9-3.5 5.8-7 5.8c-3.6 0-7.1-2-7.1-6c0-3.8 3.6-5.8 6.9-5.8 C77.6 3 81.2 5.1 81.2 9L81.2 9z M101.7 16.2v-1.9h-9.5V1.6h-1.9v14.6H101.7L101.7 16.2z M127.7 16.2L121 7l5.8-5.4h-2.8l-8.3 7.7 V1.6h-1.9v14.6h1.9v-4.3l3.9-3.6l5.7 7.8H127.7L127.7 16.2z M149.1 10.5V1.6h-1.9v8.9c0 3.2-2.2 4.1-5.1 4.1 c-2.9 0-5.2-0.8-5.2-4.1V1.6H135v8.9c0 4.4 3 6.1 7.1 6.1C146.1 16.6 149.1 14.9 149.1 10.5L149.1 10.5z M172.6 16.2l-4.3-6 c2.2-0.4 4-1.8 4-4.2c0-3.2-2.8-4.3-5.6-4.3h-9.1v14.6h1.9v-5.9h6.5l4.1 5.9H172.6L172.6 16.2z M170.3 5.9c0 2.1-1.9 2.5-3.6 2.5 h-7.2V3.5h7.2C168.4 3.5 170.3 3.9 170.3 5.9L170.3 5.9z M191.5 3.5V1.6h-13.7v1.9h5.9v12.7h1.9V3.5H191.5L191.5 3.5z M212.7 16.2 V1.6h-1.9v6.1h-10.1V1.6h-1.9v14.6h1.9V9.6h10.1v6.5H212.7L212.7 16.2z M218.5 5.3h0.4V4.1h0.5l0.7 1.1h0.4l-0.8-1.1 c0.4 0 0.7-0.2 0.7-0.7c0-0.5-0.3-0.7-0.9-0.7h-1V5.3L218.5 5.3z M218.9 3h0.6c0.3 0 0.6 0 0.6 0.4c0 0.4-0.3 0.4-0.7 0.4h-0.4V3 L218.9 3z M217.1 4c0 1.3 1 2.2 2.3 2.2c1.2 0 2.3-1 2.3-2.3c0-1.3-1-2.2-2.3-2.2C218.1 1.7 217.1 2.7 217.1 4L217.1 4z M217.4 4 c0-1.1 0.8-1.9 1.9-1.9c1.1 0 1.9 0.8 1.9 1.9c0 1.1-0.8 1.9-1.9 1.9C218.3 5.9 217.4 5 217.4 4L217.4 4z" class="style0"/>
		<path d="M50.9 40.6L43.7 26h-3.9l-7.1 14.6h3.3l1.5-3.1h8.6l1.5 3.1H50.9L50.9 40.6z M44.6 34.6H39l2.8-5.8L44.6 34.6L44.6 34.6z M71.5 40.6l-3.7-6c2-0.6 3.3-2 3.3-4.2c0-1.4-0.6-2.8-1.8-3.6 c-0.9-0.6-1.7-0.8-2.8-0.8h-10v14.6h3v-6h4.7l3.7 6H71.5L71.5 40.6z M68.1 30.3c0 0.9-0.8 1.4-1.6 1.4h-7v-2.8H66 C67 28.9 68.1 29 68.1 30.3L68.1 30.3z M91.9 38.8l-1.3-2.7c-2.3 1.5-3.6 2.1-6.3 2.1c-2.8 0-5.9-1.7-5.9-4.8c0-3 3-4.9 5.7-4.9 c2.4 0 4.1 0.9 5.8 2.4l1.7-2.6c-2.5-1.8-4.3-2.8-7.5-2.8c-4.7 0-8.7 3.1-8.7 8c0 5.1 4.4 7.6 9 7.6 C87.8 41.1 89.2 40.5 91.9 38.8L91.9 38.8z M111.8 40.6V26h-2.9v5.5h-8V26h-2.9v14.6h2.9v-6.1h8v6.1H111.8L111.8 40.6z M123.4 40.6V26h-2.9v14.6H123.4L123.4 40.6z M142.7 28.9V26h-13.7v2.9h5.3v11.7h2.9V28.9H142.7L142.7 28.9z M162 40.6v-2.9h-10.4 v-3.2h5.3v-2.9h-5.3v-2.7h10V26h-12.9v14.6H162L162 40.6z M182.9 38.8l-1.3-2.7c-2.3 1.5-3.6 2.1-6.3 2.1c-2.8 0-5.9-1.7-5.9-4.8 c0-3 3-4.9 5.7-4.9c2.4 0 4.1 0.9 5.8 2.4l1.7-2.6c-2.5-1.8-4.3-2.8-7.5-2.8c-4.7 0-8.7 3.1-8.7 8c0 5.1 4.4 7.6 9 7.6 C178.7 41.1 180.1 40.5 182.9 38.8L182.9 38.8z M200.2 28.9V26h-13.7v2.9h5.3v11.7h2.9V28.9H200.2L200.2 28.9z M220.1 34.9V26 h-2.9v8.9c0 1.6-0.3 2.1-1.1 2.6c-0.8 0.5-1.9 0.6-2.8 0.6c-2.5 0-4.4-0.3-4.4-3.2V26H206v8.9c0 4.3 2.8 6.2 6.9 6.2 c2.1 0 4.7-0.6 6.1-2.3C220 37.5 220.1 36.4 220.1 34.9L220.1 34.9z M243.5 40.6l-3.7-6c2-0.6 3.3-2 3.3-4.2 c0-1.4-0.6-2.8-1.8-3.6c-0.9-0.6-1.7-0.8-2.8-0.8h-10v14.6h3v-6h4.7l3.7 6H243.5L243.5 40.6z M240.1 30.3c0 0.9-0.8 1.4-1.6 1.4 h-7v-2.8h6.5C238.9 28.9 240.1 29 240.1 30.3L240.1 30.3z M262.3 40.6v-2.9h-10.4v-3.2h5.3v-2.9h-5.3v-2.7h10V26h-12.9v14.6H262.3 L262.3 40.6z M280.4 33.5c0-1-0.4-1.9-1.1-2.6c-0.7-0.6-1.3-0.7-2.3-0.7h-6.6v10.4h2.1v-3.8h4.2c1.1 0 2 0 2.8-0.9 C280.1 35.2 280.4 34.4 280.4 33.5L280.4 33.5z M278.3 33.5c0 1.1-0.7 1.3-1.7 1.3h-4.2v-2.5h4.2 C277.5 32.3 278.3 32.4 278.3 33.5L278.3 33.5z M295.3 39.3l-0.9-1.9c-1.6 1-2.6 1.5-4.5 1.5c-2 0-4.2-1.2-4.2-3.4 c0-2.2 2.1-3.5 4.1-3.5c1.7 0 2.9 0.6 4.2 1.7l1.2-1.8c-1.8-1.3-3.1-2-5.3-2c-3.3 0-6.2 2.2-6.2 5.7c0 3.6 3.1 5.4 6.4 5.4 C292.3 41 293.3 40.5 295.3 39.3L295.3 39.3z" class="style1"/>
	</g>
</g>
</svg>
