<svg xmlns="http://www.w3.org/2000/svg" xmlns:xlink="http://www.w3.org/1999/xlink" version="1.1" x="0px" y="0px" viewBox="-100 0 239 40" enable-background="new -100 0 239 40" xml:space="preserve">
<style>
	.style0{
		fill:	#414042;
	}
	.style1{
		fill:	#99B83C;
	}
</style><g>
	<path d="M-83.6 2.9c-2.3-2-4.8-2.9-7.7-2.9c-4.6 0-8.7 2.9-8.7 7.8c0 5.1 4.5 7.8 9.2 7.8c2.5 0 5.1-0.7 7.1-2.3 l-0.8-1.7c-2 1.4-3.8 2.1-6.3 2.1c-3.6 0-7.3-1.7-7.3-5.8c0-3.8 3.3-5.9 6.8-5.9c2.6 0 4.6 0.9 6.6 2.5L-83.6 2.9L-83.6 2.9z M-61.4 15.1l-8.2-14.6h-1.7l-8.3 14.6h2l2.1-3.6h10.1l2 3.6H-61.4L-61.4 15.1z M-66.5 9.5h-7.9l4-7L-66.5 9.5L-66.5 9.5z M-40.8 15.1l-4.3-6c2.2-0.4 3.9-1.8 3.9-4.2c0-3.2-2.8-4.3-5.6-4.3h-9.1v14.6h1.9v-6h6.5l4.1 5.9H-40.8L-40.8 15.1z M-43 4.8 c0 2.1-1.9 2.5-3.6 2.5h-7.2V2.4h7.2C-45 2.4-43 2.8-43 4.8L-43 4.8z M-16.9 7.9c0-5-4.5-7.9-9.1-7.9c-4.5 0-8.8 2.9-8.8 7.7 c0 5 4.2 7.9 8.9 7.9C-21.3 15.6-16.9 12.9-16.9 7.9L-16.9 7.9z M-18.8 7.9c0 3.9-3.5 5.8-7 5.8c-3.6 0-7.1-2-7.1-6 c0-3.8 3.6-5.8 6.9-5.8C-22.4 1.9-18.8 4-18.8 7.9L-18.8 7.9z M1.6 15.1v-1.9h-9.5V0.5h-1.9v14.6H1.6L1.6 15.1z M27.7 15.1L21 5.9 l5.8-5.4H24l-8.3 7.7V0.5h-1.9v14.6h1.9v-4.3l3.9-3.6l5.7 7.8h2.4V15.1z M49 9.4V0.5h-1.9v8.9c0 3.2-2.2 4.1-5.1 4.1 c-2.9 0-5.2-0.8-5.2-4.1V0.5h-1.9v8.9c0 4.4 3 6.1 7.1 6.1C46 15.5 49 13.8 49 9.4L49 9.4z M72.4 15.1l-4.3-6 C70.3 8.7 72 7.3 72 4.9c0-3.2-2.8-4.3-5.6-4.3h-9.1v14.6h1.9v-6h6.5l4.1 5.9H72.4L72.4 15.1z M70.2 4.8c0 2.1-1.9 2.5-3.6 2.5 h-7.2V2.4h7.2C68.2 2.4 70.2 2.8 70.2 4.8L70.2 4.8z M91.4 2.4V0.5H77.7v1.9h5.9v12.7h1.9V2.4H91.4L91.4 2.4z M112.5 15.1V0.5h-1.9 v6.1h-10.1V0.5h-1.9v14.6h1.9V8.5h10.1V15h1.9V15.1z M118.3 4.2h0.4V3h0.5l0.7 1.1h0.4L119.5 3c0.4 0 0.7-0.2 0.7-0.7 s-0.3-0.7-0.9-0.7h-1L118.3 4.2L118.3 4.2z M118.7 1.9h0.6c0.3 0 0.6 0 0.6 0.4s-0.3 0.4-0.7 0.4h-0.4L118.7 1.9L118.7 1.9z M116.9 2.9c0 1.3 1 2.2 2.3 2.2c1.2 0 2.3-1 2.3-2.3s-1-2.2-2.3-2.2C117.9 0.6 116.9 1.6 116.9 2.9L116.9 2.9z M117.3 2.9 c0-1.1 0.8-1.9 1.9-1.9s1.9 0.8 1.9 1.9s-0.8 1.9-1.9 1.9C118.1 4.8 117.3 3.9 117.3 2.9L117.3 2.9z" class="style0"/>
	<path d="M-60.5 39.5V24.9h-2.9v14.6H-60.5L-60.5 39.5z M-38.5 39.5V24.9h-2.9v9.9l-8.1-9.9h-2.9v14.6h2.9v-9.9 l8.1 9.9H-38.5L-38.5 39.5z M-18.7 27.8v-2.9h-13.7v2.9h5.3v11.7h2.9V27.8H-18.7L-18.7 27.8z M0.6 39.5v-2.9H-9.8v-3.2h5.3v-2.9 h-5.3v-2.7h10v-2.9h-12.9v14.6H0.6L0.6 39.5z M21.4 39.5l-3.7-6c2-0.6 3.3-2 3.3-4.2c0-1.4-0.6-2.8-1.8-3.6 c-0.9-0.6-1.7-0.8-2.8-0.8h-10v14.6h3v-6H14l3.7 6H21.4L21.4 39.5z M18 29.2c0 0.9-0.8 1.4-1.6 1.4h-7v-2.8h6.5 C16.9 27.8 18 27.9 18 29.2L18 29.2z M29.9 39.5V24.9H27v14.6H29.9L29.9 39.5z M54.3 32c0-5-4.4-7.6-9-7.6c-4.5 0-9 2.8-9 7.7 s4.3 7.8 8.9 7.8C49.9 40 54.3 37 54.3 32L54.3 32z M51.4 32.1c0 3.2-3.1 4.9-6 4.9s-6.1-1.5-6.1-4.8s3.1-4.8 6-4.8 C48.2 27.4 51.4 28.8 51.4 32.1L51.4 32.1z M76.2 39.5l-3.7-6c2-0.6 3.3-2 3.3-4.2c0-1.4-0.6-2.8-1.8-3.6c-0.9-0.6-1.7-0.8-2.8-0.8 h-10v14.6h3v-6h4.7l3.7 6H76.2L76.2 39.5z M72.8 29.2c0 0.9-0.8 1.4-1.6 1.4h-7v-2.8h6.5C71.7 27.8 72.8 27.9 72.8 29.2L72.8 29.2z M95 35.1c0-3.3-2.6-4.5-5.5-4.6c-1.3-0.1-2.5 0-3.8-0.1c-0.9 0-2.6-0.2-2.6-1.4c0-1.4 2.2-1.7 3.2-1.7c2.4 0 4.3 0.5 6.4 1.6 l1.3-2.6c-2.4-1.3-4.3-1.9-7.1-1.9c-2.9 0-6.9 0.8-6.9 4.5c0 3 2.7 4.4 5.3 4.5c1.5 0.1 2.9 0 4.4 0.1c0.9 0.1 2.2 0.3 2.2 1.5 c0 1.7-2.4 2.1-3.7 2.1c-3.4 0-4.9-0.5-7.8-2.3L79 37.4c3 2.1 4.6 2.6 8.2 2.6C90.6 40 95 39.2 95 35.1L95 35.1z M111.2 39.5v-2.1 h-5.9v-8.3h-2.2v10.4H111.2L111.2 39.5z M122.8 31.1V29H113v2.1h3.8v8.4h2.1v-8.4H122.8L122.8 31.1z M138 34.2 c0-3.3-2.1-5.1-5.3-5.1H127v10.4h5.7C135.9 39.5 138 37.4 138 34.2L138 34.2z M135.9 34.2c0 2-1.2 3.2-3.2 3.2h-3.5v-6.2h3.5 C134.8 31.2 135.9 32.2 135.9 34.2L135.9 34.2z" class="style1"/>
</g>
</svg>
