<svg xmlns="http://www.w3.org/2000/svg" xmlns:xlink="http://www.w3.org/1999/xlink" version="1.1" x="0px" y="0px" viewBox="0 0 108 100" enable-background="new 0 0 108 100" xml:space="preserve">
<style>
	.style0{
		fill:	#99B83C;
	}
	.style1{
		clip-path:	url(#SVGID_2_);
		stroke:	#99B83C;
		stroke-width:	4.9124;
		fill:	none;
	}
	.style2{
		fill:	#FFFFFF;
	}
	.style3{
		fill:	#666666;
	}
</style><g>
	<path d="M2.5 2.5c0 31.7 0 63.4 0 95.1c31.7 0 63.4 0 95.1 0c0-31.7 0-63.4 0-95.1C65.8 2.5 34.2 2.5 2.5 2.5 L2.5 2.5z" class="style0"/>
	<g>
		<defs>
			<rect width="108" height="100"/>
		</defs>
		<clipPath>
			<use xlink:href="#SVGID_1_" overflow="visible"/>
		</clipPath>
		<path d="M2.5 2.5c0 31.7 0 63.4 0 95.1 c31.7 0 63.4 0 95.1 0c0-31.7 0-63.4 0-95.1C65.8 2.5 34.2 2.5 2.5 2.5L2.5 2.5z" class="style1"/>
	</g>
	<path d="M14.6 50c0-16.6 11.3-30.6 26.6-34.7v-4.8C23.2 14.7 9.9 30.8 9.9 50c0 19.2 13.3 35.3 31.3 39.5v-4.8 C25.8 80.6 14.6 66.6 14.6 50L14.6 50z M59.9 10.5v4.8C75.2 19.4 86.5 33.4 86.5 50c0 16.6-11.3 30.6-26.6 34.7v4.8 C77.8 85.3 91.1 69.2 91.1 50C91.1 30.8 77.8 14.7 59.9 10.5L59.9 10.5z" class="style2"/>
	<path d="M14.8 9.4H9.9c0 19.4 13 35.7 30.8 40.6C22.9 55 9.9 71.3 9.9 90.6h4.9c0-19.6 15-35.6 34.2-37.2v-6.9 C29.8 45 14.8 28.9 14.8 9.4L14.8 9.4z M60.3 50c17.8-5 30.8-21.3 30.8-40.6h-4.9c0 19.6-15 35.6-34.2 37.2v6.9 C71.2 55 86.3 71.1 86.3 90.6h4.9C91.1 71.3 78.1 55 60.3 50L60.3 50z" class="style2"/>
	<path d="M49 90.6c-1.6-0.1-3.2-0.2-4.7-0.4V9.9c1.5-0.2 3.1-0.4 4.7-0.4V90.6L49 90.6z M52.1 90.6V9.4 c1.6 0.1 3.2 0.2 4.7 0.4v80.3C55.2 90.4 53.7 90.5 52.1 90.6L52.1 90.6z" class="style2"/>
	<path d="M103.7 5.1h0.6V3.6h0.5l0.9 1.5h0.7l-0.9-1.5c0.5-0.1 0.8-0.4 0.8-1c0-0.7-0.4-1.1-1.2-1.1h-1.4V5.1 L103.7 5.1z M104.3 2.1h0.5c0.4 0 0.8 0 0.8 0.5c0 0.5-0.4 0.5-0.8 0.5h-0.5V2.1L104.3 2.1z M101.7 3.4c0 1.7 1.4 3.1 3.1 3.1 s3.1-1.4 3.1-3.1c0-1.7-1.4-3.1-3.1-3.1S101.7 1.6 101.7 3.4L101.7 3.4z M102.3 3.4c0-1.4 1.1-2.6 2.6-2.6c1.4 0 2.6 1.1 2.6 2.6 c0 1.4-1.1 2.6-2.6 2.6C103.4 5.9 102.3 4.8 102.3 3.4L102.3 3.4z" class="style3"/>
</g>
</svg>
