<?xml version="1.0" encoding="utf-8"?>
<!-- Generator: Adobe Illustrator 18.0.0, SVG Export Plug-In . SVG Version: 6.00 Build 0)  -->
<!DOCTYPE svg PUBLIC "-//W3C//DTD SVG 1.1//EN" "http://www.w3.org/Graphics/SVG/1.1/DTD/svg11.dtd">
<svg version="1.1" id="Layer_1" xmlns="http://www.w3.org/2000/svg" xmlns:xlink="http://www.w3.org/1999/xlink" x="0px" y="0px"
	 viewBox="0 0 36 30" enable-background="new 0 0 36 30" xml:space="preserve">
<g>
	<g>
		<polygon fill="#FFFFFF" points="24.6,7.1 24.2,7.4 25.4,8.6 25,9 23.8,7.9 23.4,8.3 24,8.8 23.6,9.1 23.1,8.6 22.7,9 23.2,9.6 
			22.9,9.9 22.3,9.3 21.9,9.8 22.5,10.3 22.2,10.6 21.6,10.1 21.1,10.6 22.3,11.8 21.9,12.2 20.7,11 20.2,11.5 20.8,12.1 20.4,12.3 
			19.9,11.8 19.5,12.2 20,12.8 19.7,13.1 19.2,12.5 18.7,12.9 19.3,13.5 19,13.8 18.4,13.3 18,13.7 19.2,14.9 18.8,15.3 17.6,14.1 
			17.2,14.5 19.7,17 27.1,9.6 		"/>
	</g>
	<g>
		<path fill="#FFFFFF" d="M21.4,4.3V0h-2.5v2.2l-2.4-2L8.9,6.5h1.8v3.6V14h2.8h1.7h0.1v-3.3h2.6v2.1l4.5-4.5V6.5h1.8L21.4,4.3z
			 M14.4,8.8h-2.2V6.6h2.2V8.8z"/>
	</g>
</g>
</svg>
