<?xml version="1.0" encoding="utf-8"?>
<!-- Generator: Adobe Illustrator 18.0.0, SVG Export Plug-In . SVG Version: 6.00 Build 0)  -->
<!DOCTYPE svg PUBLIC "-//W3C//DTD SVG 1.1//EN" "http://www.w3.org/Graphics/SVG/1.1/DTD/svg11.dtd">
<svg version="1.1" id="Layer_1" xmlns="http://www.w3.org/2000/svg" xmlns:xlink="http://www.w3.org/1999/xlink" x="0px" y="0px"
	 viewBox="0 0 36 30" enable-background="new 0 0 36 30" xml:space="preserve">
<g id="Layer_1_1_">
	<path fill="#FFFFFF" d="M29.1,12.9l-4-3.5c-0.1-0.1-0.2-0.1-0.4-0.1L22,10c-0.2,0-0.3,0.2-0.3,0.3l-0.1,0.6l-1.3-0.3V7.5l1.4,1.3
		L23,7.4L14.9,0l-3.6,3.2V1.7H9.5v3.2L6.8,7.3l1.2,1.4l1.4-1.2V17h2.4v-5.2h2.3V17h6.2v-6l1.3,0.3l-0.2,1.7c0,0.1,0,0.2,0.1,0.3
		l4,3.5c0.1,0.1,0.2,0.1,0.2,0.1c0.1,0,0.2,0,0.3-0.1l3-3.4c0.1-0.1,0.1-0.2,0.1-0.3C29.2,13.1,29.2,13,29.1,12.9z M14.1,9.7h-2.3
		V7.3h2.3V9.7z M18.1,9.7h-2.3V7.3h2.3V9.7z M25.8,16.1l-3.5-3.1l0.2-1.4l0.6,0.2c0,0.3,0.2,0.5,0.5,0.5c0.3,0.1,0.7-0.1,0.8-0.5
		c0.1-0.3-0.1-0.7-0.5-0.8c-0.2-0.1-0.5,0-0.6,0.2l-0.7-0.2l0.1-0.4l2.2-0.6l3.6,3.2L25.8,16.1z"/>
</g>
<g id="Layer_2">
</g>
</svg>
