<?xml version="1.0" encoding="utf-8"?>
<!-- Generator: Adobe Illustrator 18.1.1, SVG Export Plug-In . SVG Version: 6.00 Build 0)  -->
<!DOCTYPE svg PUBLIC "-//W3C//DTD SVG 1.1//EN" "http://www.w3.org/Graphics/SVG/1.1/DTD/svg11.dtd">
<svg version="1.1" id="Layer_1" xmlns="http://www.w3.org/2000/svg" xmlns:xlink="http://www.w3.org/1999/xlink" x="0px" y="0px"
	 viewBox="0 0 1000 1000" enable-background="new 0 0 1000 1000" xml:space="preserve">
<path fill="#FFFFFF" d="M500,138.7c-41.2,0-75,31.9-75,84.4s33.8,103.1,75,103.1s75-50.6,75-103.1S541.2,138.7,500,138.7z
	 M331.2,157.5c-35.6,0-65.6,31.6-65.6,78.5s30,90.2,65.6,90.2s65.6-43.4,65.6-90.2C396.9,191,366.9,157.5,331.2,157.5z M668.8,157.5
	c-35.6,0-65.6,31.6-65.6,78.5s30,90.2,65.6,90.2s65.6-43.4,65.6-90.2C734.4,191,704.4,157.5,668.8,157.5z M265.6,307.5
	c-35.6,0-65.6,30-65.6,65.6v18.8c0,5.6,3.8,9.4,9.4,9.4h112.5c5.6,0,9.4-3.7,9.4-9.4v-9.4c0-9.4,2.1-20.5,5.9-29.9
	c1.9-5.6,1.9-9.5,0-7.6H333c-22.5,0-43-11.1-58-29.9l-7.6-7.6H265.6z M425,307.5c-41.2,0-75,33.8-75,75v28.1c0,5.6,3.8,9.4,9.4,9.4
	h281.2c5.6,0,9.4-3.7,9.4-9.4v-28.1c0-41.2-33.8-75-75-75h-3.5c-1.9,0-7.5,3.9-9.4,7.6c-15,18.8-36,29.9-60.4,29.9
	c-24.4,0-44.8-11.1-59.8-29.9c-5.6-3.8-9.7-7.6-13.5-7.6H425L425,307.5z M732.6,307.5l-7.6,7.6c-15,18.8-35.5,29.9-58,29.9h-4.1
	c-1.9,0-1.9,3.9,0,7.6c3.8,9.4,5.9,18.6,5.9,29.9v9.4c0,5.6,3.8,9.4,9.4,9.4h112.5c5.6,0,9.4-3.7,9.4-9.4v-18.8
	C800,337.5,770.1,307.5,732.6,307.5z"/>
</svg>
